# xmcd
#
# Track frame offsets:
#	150
#	17670
#	38585
#	54310
#	71720
#	89729
#	103467
#	120209
#	136604
#	149459
#	164293
#	180923
#	195639
#	210623
#	228305
#	245672
#
# Disc length: 3599 seconds
#
# Revision: 1
# Processed by: cddbd v1.5.2PL0 Copyright (c) Steve Scherf et al.
# Submitted via: audiograbber 1.83.01
#
DISCID=d90e0d10
DTITLE=Various Artist - Country Heat: Kickin' Back
DYEAR=2014
DGENRE=Country
TTITLE0=Blake Shelton - God Gave Me You
TTITLE1=Brad Paisley - Southern Comfort Zone
TTITLE2=Kenny Chesney - Summertime
TTITLE3=Hunter Hayes - Wanted
TTITLE4=Carrie Underwood - One Way Ticket
TTITLE5=Brett Eldredge - Beat Of The Music
TTITLE6=Jake Owen - Summer Jam (Feat. Florida Georgia Line)
TTITLE7=Brett Kissel - 3,2,1
TTITLE8=Gord Bamford - Farm Girl Strong
TTITLE9=Jerrod Niemann - Lover, Lover
TTITLE10=Phil Vassar - Six-Pack Summer
TTITLE11=Kira Isabella - Gonna Be A Hot One
TTITLE12=Cole Swindell - Chillin' It
TTITLE13=Frankie Ballard - Helluva Life
TTITLE14=Tebey - Somewhere In The Country
TTITLE15=Zac Brown Band - Goodbye In Her Eyes
EXTD=
EXTT0=
EXTT1=
EXTT2=
EXTT3=
EXTT4=
EXTT5=
EXTT6=
EXTT7=
EXTT8=
EXTT9=
EXTT10=
EXTT11=
EXTT12=
EXTT13=
EXTT14=
EXTT15=
PLAYORDER=
